<svg width="24" height="24" viewBox="0 0 24 24" fill="none" xmlns="http://www.w3.org/2000/svg">
<rect width="24" height="24" rx="4" fill="#717579"/>
<g clip-path="url(#clip0)">
<path d="M17.2767 12.6853C17.018 12.3586 17.092 12.2133 17.2767 11.9213C17.28 11.9179 19.4153 8.96725 19.6353 7.96659L19.6367 7.96592C19.746 7.60125 19.6367 7.33325 19.108 7.33325H17.3587C16.9133 7.33325 16.708 7.56325 16.598 7.82059C16.598 7.82059 15.7073 9.95259 14.4473 11.3346C14.0407 11.7339 13.8527 11.8619 13.6307 11.8619C13.5213 11.8619 13.3513 11.7339 13.3513 11.3693V7.96592C13.3513 7.52859 13.2267 7.33325 12.858 7.33325H10.1073C9.828 7.33325 9.662 7.53725 9.662 7.72725C9.662 8.14192 10.292 8.23725 10.3573 9.40392V11.9353C10.3573 12.4899 10.2567 12.5919 10.0333 12.5919C9.43867 12.5919 7.99533 10.4513 7.14 8.00125C6.96733 7.52592 6.79867 7.33392 6.35 7.33392H4.6C4.10067 7.33392 4 7.56392 4 7.82125C4 8.27592 4.59467 10.5366 6.76533 13.5233C8.212 15.5619 10.2493 16.6666 12.1027 16.6666C13.2167 16.6666 13.3527 16.4213 13.3527 15.9993C13.3527 14.0513 13.252 13.8673 13.81 13.8673C14.0687 13.8673 14.514 13.9953 15.554 14.9786C16.7427 16.1446 16.938 16.6666 17.6033 16.6666H19.3527C19.8513 16.6666 20.104 16.4213 19.9587 15.9373C19.626 14.9193 17.378 12.8253 17.2767 12.6853Z" fill="white"/>
</g>
<defs>
<clipPath id="clip0">
<rect width="16" height="16" fill="white" transform="translate(4 4)"/>
</clipPath>
</defs>
</svg>
