<svg width="10" height="10" viewBox="0 0 10 10" fill="none" xmlns="http://www.w3.org/2000/svg">
<path d="M4.69 0.00952148C4.32157 0.352832 4.02605 0.766834 3.82109 1.22683C3.61614 1.68683 3.50593 2.18339 3.49704 2.68691C3.48816 3.19042 3.58078 3.69057 3.76939 4.15751C3.95799 4.62445 4.23871 5.04862 4.59481 5.40471C4.9509 5.76081 5.37507 6.04153 5.84201 6.23013C6.30895 6.41874 6.8091 6.51136 7.31261 6.50248C7.81613 6.4936 8.31269 6.38339 8.77269 6.17843C9.23269 5.97347 9.64669 5.67796 9.99 5.30952C9.831 7.92702 7.658 10 5.0005 10C2.2385 10 0 7.76152 0 5.00002C0 2.34252 2.073 0.169521 4.69 0.00952148Z" fill="#FF9900"/>
</svg>
