<svg width="28" height="28" viewBox="0 0 28 28" fill="none" xmlns="http://www.w3.org/2000/svg">
<rect width="28" height="28" rx="4" fill="#4B729F"/>
<g clip-path="url(#clip0)">
<path d="M19.2767 14.6855C19.018 14.3588 19.092 14.2135 19.2767 13.9215C19.28 13.9182 21.4153 10.9675 21.6353 9.96683L21.6367 9.96616C21.746 9.6015 21.6367 9.3335 21.108 9.3335H19.3587C18.9133 9.3335 18.708 9.5635 18.598 9.82083C18.598 9.82083 17.7073 11.9528 16.4473 13.3348C16.0407 13.7342 15.8527 13.8622 15.6307 13.8622C15.5213 13.8622 15.3513 13.7342 15.3513 13.3695V9.96616C15.3513 9.52883 15.2267 9.3335 14.858 9.3335H12.1073C11.828 9.3335 11.662 9.5375 11.662 9.7275C11.662 10.1422 12.292 10.2375 12.3573 11.4042V13.9355C12.3573 14.4902 12.2567 14.5922 12.0333 14.5922C11.4387 14.5922 9.99533 12.4515 9.14 10.0015C8.96733 9.52616 8.79867 9.33416 8.35 9.33416H6.6C6.10067 9.33416 6 9.56416 6 9.8215C6 10.2762 6.59467 12.5368 8.76533 15.5235C10.212 17.5622 12.2493 18.6668 14.1027 18.6668C15.2167 18.6668 15.3527 18.4215 15.3527 17.9995C15.3527 16.0515 15.252 15.8675 15.81 15.8675C16.0687 15.8675 16.514 15.9955 17.554 16.9788C18.7427 18.1448 18.938 18.6668 19.6033 18.6668H21.3527C21.8513 18.6668 22.104 18.4215 21.9587 17.9375C21.626 16.9195 19.378 14.8255 19.2767 14.6855Z" fill="white"/>
</g>
<defs>
<clipPath id="clip0">
<rect width="16" height="16" fill="white" transform="translate(6 6)"/>
</clipPath>
</defs>
</svg>
