<svg width="16" height="14" viewBox="0 0 16 14" xmlns="http://www.w3.org/2000/svg">
<path d="M13.8933 2.07334C13.5528 1.73267 13.1485 1.46243 12.7036 1.27806C12.2586 1.09368 11.7817 0.998785 11.3 0.998785C10.8183 0.998785 10.3414 1.09368 9.89643 1.27806C9.45145 1.46243 9.04717 1.73267 8.70666 2.07334L8 2.78L7.29333 2.07334C6.60554 1.38554 5.67269 0.999142 4.7 0.999142C3.72731 0.999142 2.79446 1.38554 2.10666 2.07334C1.41887 2.76113 1.03247 3.69398 1.03247 4.66667C1.03247 5.63936 1.41887 6.57221 2.10666 7.26L2.81333 7.96667L8 13.1533L13.1867 7.96667L13.8933 7.26C14.234 6.9195 14.5042 6.51521 14.6886 6.07024C14.873 5.62527 14.9679 5.14833 14.9679 4.66667C14.9679 4.18501 14.873 3.70807 14.6886 3.2631C14.5042 2.81813 14.234 2.41384 13.8933 2.07334V2.07334Z" stroke-width="1.5" stroke-linecap="round" stroke-linejoin="round"/>
</svg>
