<svg width="28" height="28" viewBox="0 0 28 28" fill="none" xmlns="http://www.w3.org/2000/svg">
<path d="M4 0C1.79086 0 0 1.79086 0 4V24C0 26.2091 1.79086 28 4 28H24C26.2091 28 28 26.2091 28 24V4C28 1.79086 26.2091 0 24 0H4Z" fill="url(#paint0_linear)"/>
<path d="M14.0002 6.00771C10.7234 6.00771 7.61177 5.71645 6.42325 8.76431C5.93232 10.0231 6.00361 11.658 6.00361 13.9989C6.00361 16.053 5.93773 17.9836 6.42325 19.2325C7.60907 22.2822 10.746 21.99 13.9984 21.99C17.1362 21.99 20.3715 22.3165 21.5744 19.2325C22.0663 17.9611 21.9941 16.3506 21.9941 13.9989C21.9941 10.8771 22.1664 8.8617 20.6512 7.34859C19.1171 5.81564 17.0423 6.00771 13.9966 6.00771H14.0002ZM13.2837 7.44778C20.1188 7.43696 20.9888 6.6777 20.5086 17.2253C20.3381 20.9557 17.4954 20.5464 14.0011 20.5464C7.62982 20.5464 7.44663 20.3642 7.44663 13.9953C7.44663 7.55238 7.952 7.45139 13.2837 7.44598V7.44778ZM18.2688 8.77423C17.739 8.77423 17.3095 9.20345 17.3095 9.73277C17.3095 10.2621 17.739 10.6913 18.2688 10.6913C18.7985 10.6913 19.2281 10.2621 19.2281 9.73277C19.2281 9.20345 18.7985 8.77423 18.2688 8.77423ZM14.0002 9.89508C11.7323 9.89508 9.89406 11.7328 9.89406 13.9989C9.89406 16.2649 11.7323 18.1018 14.0002 18.1018C16.268 18.1018 18.1054 16.2649 18.1054 13.9989C18.1054 11.7328 16.268 9.89508 14.0002 9.89508ZM14.0002 11.3352C17.5243 11.3352 17.5288 16.6626 14.0002 16.6626C10.477 16.6626 10.4716 11.3352 14.0002 11.3352Z" fill="white"/>
<defs>
<linearGradient id="paint0_linear" x1="1.87997" y1="26.1758" x2="27.8239" y2="3.71724" gradientUnits="userSpaceOnUse">
<stop stop-color="#FFDD55"/>
<stop offset="0.5" stop-color="#FF543E"/>
<stop offset="1" stop-color="#C837AB"/>
</linearGradient>
</defs>
</svg>
