<svg width="28" height="28" viewBox="0 0 28 28" fill="none" xmlns="http://www.w3.org/2000/svg">
<rect width="28" height="28" rx="4" fill="white"/>
<g clip-path="url(#clip0)">
<path fill-rule="evenodd" clip-rule="evenodd" d="M24 14.1112V14.0007V13.8906C19.5719 13.7566 17.547 13.6461 15.932 12.0687C14.3551 10.454 14.2441 8.4292 14.1105 4.00098H14H13.8895C13.7559 8.4292 13.6449 10.454 12.0679 12.0687C10.4529 13.6461 8.42801 13.7566 4 13.8906V14.0007V14.1112C8.42801 14.2452 10.4529 14.3557 12.0679 15.9327C13.6449 17.5478 13.7559 19.5726 13.8895 24.0008H14H14.1105C14.2441 19.5726 14.3551 17.5478 15.932 15.9327C17.547 14.3557 19.5719 14.2452 24 14.1112Z" fill="#414549"/>
</g>
<defs>
<clipPath id="clip0">
<rect width="20" height="20" fill="white" transform="translate(4 4)"/>
</clipPath>
</defs>
</svg>
