<svg width="24" height="24" viewBox="0 0 24 24" fill="none" xmlns="http://www.w3.org/2000/svg">
<rect width="24" height="24" rx="4" fill="#717579"/>
<g clip-path="url(#clip0)">
<path d="M19.9843 8.70404C19.9468 7.8539 19.8093 7.26944 19.6124 6.76299C19.4092 6.22541 19.0967 5.74412 18.6872 5.34401C18.2871 4.93768 17.8026 4.62195 17.2712 4.42196C16.7619 4.22502 16.1805 4.08754 15.3303 4.05006C14.4738 4.0094 14.2019 4 12.0296 4C9.85733 4 9.58543 4.0094 8.73211 4.04688C7.88197 4.08437 7.29751 4.22197 6.79118 4.41878C6.25348 4.62195 5.77219 4.93451 5.37209 5.34401C4.96576 5.74412 4.65014 6.22858 4.45003 6.75994C4.2531 7.26944 4.11562 7.85073 4.07813 8.70087C4.03748 9.55736 4.02808 9.82926 4.02808 12.0016C4.02808 14.1739 4.03748 14.4458 4.07496 15.2991C4.11244 16.1492 4.25004 16.7337 4.44698 17.2401C4.65014 17.7777 4.96576 18.259 5.37209 18.6591C5.77219 19.0654 6.25666 19.3812 6.78801 19.5812C7.29751 19.7781 7.8788 19.9156 8.72906 19.9531C9.58225 19.9907 9.85428 20 12.0266 20C14.1989 20 14.4708 19.9907 15.3241 19.9531C16.1742 19.9156 16.7587 19.7781 17.265 19.5812C18.3403 19.1654 19.1904 18.3153 19.6062 17.2401C19.803 16.7306 19.9406 16.1492 19.9781 15.2991C20.0155 14.4458 20.0249 14.1739 20.0249 12.0016C20.0249 9.82926 20.0218 9.55736 19.9843 8.70404ZM18.5435 15.2366C18.509 16.018 18.3778 16.4399 18.2684 16.7212C17.9995 17.4183 17.4463 17.9715 16.7493 18.2403C16.468 18.3497 16.043 18.481 15.2646 18.5153C14.4207 18.5529 14.1676 18.5622 12.0328 18.5622C9.89799 18.5622 9.64171 18.5529 8.80085 18.5153C8.01945 18.481 7.59749 18.3497 7.31619 18.2403C6.96932 18.1121 6.65358 17.909 6.39731 17.6433C6.13163 17.3838 5.92847 17.0713 5.80027 16.7244C5.69087 16.4431 5.55962 16.018 5.52531 15.2397C5.48771 14.3958 5.47843 14.1426 5.47843 12.0078C5.47843 9.87297 5.48771 9.6167 5.52531 8.77596C5.55962 7.99455 5.69087 7.5726 5.80027 7.29129C5.92847 6.9443 6.13163 6.62869 6.40048 6.37229C6.65981 6.10661 6.97237 5.90345 7.31936 5.77537C7.60067 5.66597 8.0258 5.53472 8.80402 5.50029C9.64794 5.46281 9.90116 5.45341 12.0359 5.45341C14.1738 5.45341 14.4269 5.46281 15.2678 5.50029C16.0492 5.53472 16.4712 5.66597 16.7525 5.77537C17.0993 5.90345 17.4151 6.10661 17.6713 6.37229C17.937 6.63174 18.1402 6.9443 18.2684 7.29129C18.3778 7.5726 18.509 7.99761 18.5435 8.77596C18.5809 9.61987 18.5903 9.87297 18.5903 12.0078C18.5903 14.1426 18.5809 14.3927 18.5435 15.2366Z" fill="white"/>
<path d="M12.0296 7.89136C9.76049 7.89136 7.91943 9.73229 7.91943 12.0015C7.91943 14.2708 9.76049 16.1117 12.0296 16.1117C14.2989 16.1117 16.1398 14.2708 16.1398 12.0015C16.1398 9.73229 14.2989 7.89136 12.0296 7.89136ZM12.0296 14.6677C10.5575 14.6677 9.36344 13.4737 9.36344 12.0015C9.36344 10.5293 10.5575 9.33537 12.0296 9.33537C13.5018 9.33537 14.6958 10.5293 14.6958 12.0015C14.6958 13.4737 13.5018 14.6677 12.0296 14.6677Z" fill="white"/>
<path d="M17.262 7.72883C17.262 8.25872 16.8323 8.68837 16.3023 8.68837C15.7724 8.68837 15.3428 8.25872 15.3428 7.72883C15.3428 7.19882 15.7724 6.76929 16.3023 6.76929C16.8323 6.76929 17.262 7.19882 17.262 7.72883Z" fill="white"/>
</g>
<defs>
<clipPath id="clip0">
<rect width="16" height="16" fill="white" transform="translate(4 4)"/>
</clipPath>
</defs>
</svg>
