<svg width="118" height="20" viewBox="0 0 118 20" fill="none" xmlns="http://www.w3.org/2000/svg">
<g clip-path="url(#clip000)">
<path d="M18.995 17.5321C19.3859 16.8772 19.5923 16.1287 19.5922 15.366C19.5928 14.4711 19.309 13.599 18.7818 12.8758C18.2546 12.1525 17.5112 11.6155 16.6589 11.3421C16.6549 11.3389 16.6504 11.3367 16.6455 11.3354C16.0497 11.1465 15.4195 11.0921 14.8001 11.1758C14.1807 11.2596 13.5876 11.4795 13.0633 11.8198C12.7843 12.0249 12.5185 12.2475 12.2678 12.4864C11.7322 12.9397 11.0033 13.1241 10.2544 13.1596C10.1611 13.1641 10.0655 13.1663 9.97221 13.1663C9.17888 13.1663 8.37221 13.0419 7.80554 12.5686C7.80167 12.5655 7.7978 12.5621 7.79384 12.5587C7.78642 12.5522 7.77868 12.5455 7.76999 12.5397C7.66999 12.4308 7.56999 12.3219 7.47665 12.2086C7.17197 11.8135 6.98137 11.3424 6.92554 10.8466C6.88685 10.5757 6.86828 10.3024 6.86999 10.0289C6.86999 9.17342 7.04777 8.32241 7.5611 7.71359C7.78663 7.47422 7.9981 7.22198 8.19443 6.95812C8.64479 6.27456 8.88648 5.47472 8.88999 4.65617V4.63617C8.89012 3.52314 8.45132 2.45493 7.66877 1.66333C6.88623 0.871733 5.82308 0.420586 4.70999 0.407776H4.66332C3.90228 0.407667 3.15532 0.612945 2.50124 1.00194C1.84715 1.39095 1.3102 1.94925 0.947017 2.61796C0.583836 3.28668 0.407897 4.04102 0.437753 4.80137C0.46761 5.56173 0.702157 6.29995 1.11665 6.93812C1.32242 7.21658 1.54585 7.48153 1.78555 7.73139C2.29221 8.33354 2.46332 9.18009 2.46332 10.0289C2.46642 10.353 2.43889 10.6766 2.3811 10.9954C2.37874 11.0101 2.37725 11.025 2.37666 11.0399C2.30633 11.435 2.14672 11.8089 1.90999 12.1331C1.2475 12.6918 0.772719 13.4405 0.549923 14.2779C0.327127 15.1153 0.367085 16.001 0.664383 16.8149C0.961683 17.6289 1.50196 18.3318 2.21206 18.8286C2.92217 19.3254 3.76779 19.5919 4.63443 19.5922H4.66332C5.44065 19.5936 6.20308 19.379 6.86554 18.9723C6.86554 18.9723 6.86777 18.9723 6.87221 18.9678C6.8793 18.965 6.88601 18.9612 6.89221 18.9567V18.9545C6.89814 18.9491 6.9049 18.9446 6.91221 18.9412C7.26652 18.7188 7.58561 18.4447 7.85888 18.1279C8.42777 17.6947 9.20332 17.5724 9.97221 17.5724C10.8255 17.5724 11.6789 17.7502 12.2878 18.2635C12.5268 18.4894 12.7791 18.7009 13.0433 18.8968C13.6806 19.3159 14.4194 19.5548 15.1815 19.5881C15.9435 19.6214 16.7003 19.4479 17.3717 19.0859C18.0431 18.7239 18.6041 18.187 18.995 17.5321Z" fill="url(#paint0_linear0)"/>
<path d="M18.8953 6.96117C19.35 6.27073 19.5923 5.46218 19.5922 4.63552C19.5928 3.99027 19.4453 3.35347 19.1611 2.77418C19.1574 2.77027 19.1544 2.76576 19.1522 2.76085C18.777 2.00131 18.1814 1.37254 17.4433 0.956612C17.4433 0.956612 17.4366 0.952166 17.4211 0.941056C16.7774 0.582998 16.0513 0.399276 15.3148 0.408078C14.5782 0.41688 13.8567 0.617902 13.2218 0.991242C12.5869 1.36458 12.0604 1.89729 11.6947 2.5366C11.329 3.17592 11.1366 3.89968 11.1367 4.63619C11.1363 4.6577 11.137 4.67921 11.1389 4.70063V4.70885C11.1472 5.26901 11.2673 5.82188 11.492 6.33504C11.7168 6.84822 12.0417 7.31139 12.4477 7.69739L12.4544 7.70406C13.0544 8.27284 13.8079 8.65326 14.6219 8.79831C15.4358 8.94334 16.2744 8.84661 17.0339 8.5201C17.7935 8.19358 18.4406 7.65157 18.8953 6.96117Z" fill="url(#paint1_linear1)"/>
</g>
<path d="M29.26 3.39999H37.36V5.30799H31.42V8.74599H36.28V10.654H31.42V16H29.26V3.39999ZM43.7591 16.162C42.9191 16.162 42.1511 16.03 41.4551 15.766C40.7711 15.49 40.1831 15.1 39.6911 14.596C39.2111 14.08 38.8391 13.45 38.5751 12.706C38.3111 11.962 38.1791 11.116 38.1791 10.168V9.23199C38.1791 8.29599 38.3111 7.45599 38.5751 6.71199C38.8511 5.96799 39.2291 5.34399 39.7091 4.83999C40.2011 4.32399 40.7891 3.92799 41.4731 3.65199C42.1691 3.37599 42.9311 3.23799 43.7591 3.23799C44.5991 3.23799 45.3611 3.37599 46.0451 3.65199C46.7411 3.91599 47.3291 4.30599 47.8091 4.82199C48.3011 5.33799 48.6791 5.96799 48.9431 6.71199C49.2071 7.44399 49.3391 8.28399 49.3391 9.23199V10.168C49.3391 11.104 49.2011 11.944 48.9251 12.688C48.6611 13.432 48.2831 14.062 47.7911 14.578C47.3111 15.094 46.7231 15.49 46.0271 15.766C45.3431 16.03 44.5871 16.162 43.7591 16.162ZM43.7591 14.146C44.7431 14.146 45.5411 13.816 46.1531 13.156C46.7651 12.484 47.0711 11.488 47.0711 10.168V9.23199C47.0711 8.58399 46.9871 8.01399 46.8191 7.52199C46.6631 7.01799 46.4351 6.60399 46.1351 6.27999C45.8471 5.94399 45.4991 5.69199 45.0911 5.52399C44.6831 5.34399 44.2391 5.25399 43.7591 5.25399C42.7631 5.25399 41.9591 5.58999 41.3471 6.26199C40.7471 6.92199 40.4471 7.91199 40.4471 9.23199V10.168C40.4471 11.476 40.7531 12.466 41.3651 13.138C41.9891 13.81 42.7871 14.146 43.7591 14.146ZM56.5384 16.162C55.6984 16.162 54.9304 16.03 54.2344 15.766C53.5504 15.49 52.9624 15.1 52.4704 14.596C51.9904 14.08 51.6184 13.45 51.3544 12.706C51.0904 11.962 50.9584 11.116 50.9584 10.168V9.23199C50.9584 8.29599 51.0904 7.45599 51.3544 6.71199C51.6304 5.96799 52.0084 5.34399 52.4884 4.83999C52.9804 4.32399 53.5684 3.92799 54.2524 3.65199C54.9484 3.37599 55.7104 3.23799 56.5384 3.23799C57.3784 3.23799 58.1404 3.37599 58.8244 3.65199C59.5204 3.91599 60.1084 4.30599 60.5884 4.82199C61.0804 5.33799 61.4584 5.96799 61.7224 6.71199C61.9864 7.44399 62.1184 8.28399 62.1184 9.23199V10.168C62.1184 11.104 61.9804 11.944 61.7044 12.688C61.4404 13.432 61.0624 14.062 60.5704 14.578C60.0904 15.094 59.5024 15.49 58.8064 15.766C58.1224 16.03 57.3664 16.162 56.5384 16.162ZM56.5384 14.146C57.5224 14.146 58.3204 13.816 58.9324 13.156C59.5444 12.484 59.8504 11.488 59.8504 10.168V9.23199C59.8504 8.58399 59.7664 8.01399 59.5984 7.52199C59.4424 7.01799 59.2144 6.60399 58.9144 6.27999C58.6264 5.94399 58.2784 5.69199 57.8704 5.52399C57.4624 5.34399 57.0184 5.25399 56.5384 5.25399C55.5424 5.25399 54.7384 5.58999 54.1264 6.26199C53.5264 6.92199 53.2264 7.91199 53.2264 9.23199V10.168C53.2264 11.476 53.5324 12.466 54.1444 13.138C54.7684 13.81 55.5664 14.146 56.5384 14.146ZM64.1877 3.39999H68.3277C70.3077 3.39999 71.8077 3.90399 72.8277 4.91199C73.8477 5.90799 74.3577 7.33599 74.3577 9.19599V10.204C74.3577 12.04 73.8417 13.468 72.8097 14.488C71.7777 15.496 70.2837 16 68.3277 16H64.1877V3.39999ZM66.3477 5.30799V14.092H68.3277C69.5757 14.092 70.5117 13.774 71.1357 13.138C71.7717 12.502 72.0897 11.524 72.0897 10.204V9.19599C72.0897 7.88799 71.7717 6.91599 71.1357 6.27999C70.4997 5.63199 69.5637 5.30799 68.3277 5.30799H66.3477ZM81.1921 11.248H78.5821V16H76.4221V3.39999H80.7601C82.4401 3.39999 83.6641 3.74799 84.4321 4.44399C85.2121 5.13999 85.6021 6.09999 85.6021 7.32399C85.6021 8.16399 85.4101 8.88999 85.0261 9.50199C84.6421 10.102 84.0541 10.552 83.2621 10.852L85.9621 16H83.5141L81.1921 11.248ZM78.5821 5.30799V9.33999H80.7601C81.6601 9.33999 82.3141 9.15999 82.7221 8.79999C83.1301 8.42799 83.3341 7.93599 83.3341 7.32399C83.3341 6.69999 83.1301 6.20799 82.7221 5.84799C82.3141 5.48799 81.6601 5.30799 80.7601 5.30799H78.5821ZM94.4962 12.814H89.7262L88.6822 16H86.4142L90.9142 3.39999H93.4342L97.9342 16H95.5582L94.4962 12.814ZM90.3562 10.906H93.8662L92.9662 8.15199L92.1202 5.55999L91.2742 8.15199L90.3562 10.906ZM96.8598 3.39999H106.76V5.30799H102.89V16H100.73V5.30799H96.8598V3.39999ZM108.291 3.39999H116.391V5.30799H110.451V8.56599H115.311V10.474H110.451V14.092H116.391V16H108.291V3.39999Z" fill="#ffffff"/>
<defs>
<linearGradient id="paint0_linear0" x1="0.407822" y1="19.5923" x2="19.5922" y2="19.5923" gradientUnits="userSpaceOnUse">
<stop stop-color="#22BB00"/>
<stop offset="1" stop-color="#66BB00"/>
</linearGradient>
<linearGradient id="paint1_linear1" x1="0.407822" y1="19.5923" x2="19.5922" y2="19.5923" gradientUnits="userSpaceOnUse">
<stop stop-color="#22BB00"/>
<stop offset="1" stop-color="#66BB00"/>
</linearGradient>
<clipPath id="clip000">
<rect width="20" height="20" fill="white"/>
</clipPath>
</defs>
</svg>
